<svg width="32" height="32" viewBox="0 0 32 32" fill="none" xmlns="http://www.w3.org/2000/svg">
<path fill-rule="evenodd" clip-rule="evenodd" d="M13.7356 25.5314C13.2717 25.5314 12.8365 25.3516 12.5082 25.0232C11.8306 24.3457 11.8306 23.2433 12.5082 22.5657L18.8069 16.267L12.5082 9.96565C11.8306 9.28808 11.8306 8.18574 12.5082 7.50817C13.1857 6.83061 14.2881 6.83061 14.9656 7.50817L22.4918 15.037C23.1694 15.7145 23.1694 16.8169 22.4918 17.4944L14.9656 25.0232C14.6373 25.3516 14.2021 25.5314 13.7356 25.5314ZM13.7356 7.4352C13.3864 7.4352 13.0606 7.57072 12.8157 7.81568C12.3075 8.32386 12.3075 9.14996 12.8157 9.65814L19.2682 16.1132C19.3516 16.1966 19.3516 16.3348 19.2682 16.4181L12.8157 22.8733C12.3075 23.3814 12.3075 24.2075 12.8157 24.7157C13.3239 25.2239 14.15 25.2239 14.6581 24.7157L22.1869 17.1869C22.6925 16.6787 22.6925 15.8526 22.1869 15.3445L14.6581 7.81568C14.4132 7.57072 14.0848 7.4352 13.7356 7.4352Z" fill="white"/>
</svg>
