<svg width="20" height="12" viewBox="0 0 20 12" fill="none" xmlns="http://www.w3.org/2000/svg">
<path d="M0.682617 11.0947C-0.0608618 10.3512 -0.0608618 9.14192 0.682617 8.39844L8.40137 0.682617C9.09841 -0.0144274 10.2049 -0.0582171 10.9531 0.551758L11.0977 0.682617L18.8164 8.39844C19.1766 8.75864 19.374 9.23681 19.374 9.74805C19.374 10.2567 19.1765 10.7346 18.8164 11.0947C18.0729 11.8382 16.8636 11.8382 16.1201 11.0947L9.75 4.72559L3.37891 11.0947C2.63543 11.8382 1.4261 11.8382 0.682617 11.0947ZM0.821289 9.74805C0.821318 10.0729 0.947124 10.3749 1.1748 10.6025C1.64699 11.0747 2.41454 11.0747 2.88672 10.6025L9.50488 3.9873C9.63918 3.85306 9.85984 3.85307 9.99414 3.9873L16.6123 10.6025C17.0845 11.0747 17.852 11.0747 18.3242 10.6025C18.7964 10.1304 18.7964 9.36281 18.3242 8.89062L10.6055 1.17188L10.5137 1.08984C10.0701 0.730087 9.42892 0.730079 8.98535 1.08984L8.89355 1.17188L1.1748 8.89062C0.947286 9.11814 0.821289 9.42292 0.821289 9.74805Z" fill="#081A38" stroke="#081A38" stroke-width="0.25"/>
</svg>
