<svg width="22" height="19" viewBox="0 0 22 19" fill="none" xmlns="http://www.w3.org/2000/svg">
<path d="M21.8284 2.57417C21.6661 2.35757 21.4113 2.23008 21.1406 2.23008H4.95357L4.48164 0.617934C4.37443 0.251668 4.03855 0 3.6569 0H0.859375C0.384742 0 0 0.384742 0 0.859375C0 1.33401 0.384742 1.71875 0.859375 1.71875H3.01301C3.13852 2.14754 6.31288 12.9914 6.4411 13.4295C6.54831 13.7957 6.88424 14.0474 7.26585 14.0474H18.1845C18.5662 14.0474 18.902 13.7957 19.0093 13.4295L21.9654 3.33089C22.0414 3.07119 21.9906 2.79078 21.8284 2.57417ZM17.5407 12.3286H7.90973L5.45673 3.94883H19.9937L17.5407 12.3286Z" fill="#194B8E"/>
<path d="M10.4106 18.0469C11.0514 18.0469 11.5708 17.5275 11.5708 16.8867C11.5708 16.246 11.0514 15.7266 10.4106 15.7266C9.76991 15.7266 9.25049 16.246 9.25049 16.8867C9.25049 17.5275 9.76991 18.0469 10.4106 18.0469Z" fill="#E4002B"/>
<path d="M15.0396 18.0469C15.6803 18.0469 16.1997 17.5275 16.1997 16.8867C16.1997 16.246 15.6803 15.7266 15.0396 15.7266C14.3988 15.7266 13.8794 16.246 13.8794 16.8867C13.8794 17.5275 14.3988 18.0469 15.0396 18.0469Z" fill="#E4002B"/>
</svg>
