<svg width="30" height="30" viewBox="0 0 30 30" fill="none" xmlns="http://www.w3.org/2000/svg">
<g clip-path="url(#clip0_2194_371)">
<path fill-rule="evenodd" clip-rule="evenodd" d="M15.0005 0C6.72963 0 0.000488281 6.72885 0.000488281 15C0.000488281 23.2712 6.72963 30 15.0005 30C23.2713 30 30.0002 23.2712 30.0002 15C30.0002 6.72885 23.2716 0 15.0005 0ZM21.419 8.04334C21.8227 7.64386 22.3681 7.42043 22.936 7.42189C23.5039 7.42335 24.0481 7.64958 24.4497 8.05113C24.8513 8.45268 25.0775 8.99688 25.0791 9.56479C25.0806 10.1327 24.8572 10.6781 24.4578 11.0818L13.5071 22.033C13.3091 22.2305 13.0408 22.3414 12.7612 22.3414C12.4816 22.3414 12.2134 22.2305 12.0154 22.033L5.54346 15.5614C5.14042 15.1583 4.91399 14.6117 4.91399 14.0417C4.91399 13.4717 5.14042 12.9251 5.54346 12.5221C5.9465 12.119 6.49313 11.8926 7.06312 11.8926C7.6331 11.8926 8.17974 12.119 8.58277 12.5221L12.7612 16.7005L21.419 8.04334ZM23.7951 10.4192L12.8439 21.3698C12.8219 21.3915 12.7922 21.4036 12.7613 21.4036C12.7303 21.4036 12.7007 21.3915 12.6786 21.3698L6.20691 14.8979C5.97977 14.6707 5.85217 14.3626 5.8522 14.0414C5.85221 13.8823 5.88356 13.7248 5.94444 13.5778C6.00533 13.4309 6.09457 13.2973 6.20706 13.1849C6.31955 13.0724 6.4531 12.9832 6.60007 12.9223C6.74704 12.8614 6.90456 12.8301 7.06363 12.8301C7.38489 12.8302 7.69299 12.9578 7.92014 13.185L12.2229 17.4879C12.3659 17.6303 12.5595 17.7102 12.7613 17.7102C12.9631 17.7102 13.1567 17.6303 13.2997 17.4879L22.0816 8.70592C22.3091 8.48036 22.6168 8.35412 22.9371 8.35482C23.2575 8.35552 23.5646 8.48311 23.7911 8.70966C24.0177 8.9362 24.1453 9.24327 24.146 9.56366C24.1467 9.88404 24.0204 10.1917 23.7949 10.4192H23.7951Z" fill="#E4002B"/>
</g>
<defs>
<clipPath id="clip0_2194_371">
<rect width="30" height="30" fill="white"/>
</clipPath>
</defs>
</svg>
