<svg width="28" height="28" viewBox="0 0 28 28" fill="none" xmlns="http://www.w3.org/2000/svg">
<mask id="path-1-inside-1_2264_21" fill="white">
<path fill-rule="evenodd" clip-rule="evenodd" d="M23.3592 0.732175C24.3355 -0.244091 25.919 -0.244025 26.8953 0.732175C27.8716 1.70848 27.8716 3.292 26.8953 4.26831L17.3484 13.8132L26.8953 23.3601C27.8714 24.3363 27.8713 25.919 26.8953 26.8953C25.919 27.8716 24.3355 27.8716 23.3592 26.8953L13.8133 17.3494L4.26739 26.8953C3.29108 27.8716 1.70854 27.8716 0.732233 26.8953C-0.243964 25.9189 -0.244025 24.3364 0.732233 23.3601L10.2772 13.8132L0.732233 4.26831C-0.244078 3.292 -0.244078 1.70849 0.732233 0.732175C1.70844 -0.243773 3.29113 -0.243692 4.26739 0.732175L13.8133 10.2781L23.3592 0.732175Z"/>
</mask>
<path fill-rule="evenodd" clip-rule="evenodd" d="M23.3592 0.732175C24.3355 -0.244091 25.919 -0.244025 26.8953 0.732175C27.8716 1.70848 27.8716 3.292 26.8953 4.26831L17.3484 13.8132L26.8953 23.3601C27.8714 24.3363 27.8713 25.919 26.8953 26.8953C25.919 27.8716 24.3355 27.8716 23.3592 26.8953L13.8133 17.3494L4.26739 26.8953C3.29108 27.8716 1.70854 27.8716 0.732233 26.8953C-0.243964 25.9189 -0.244025 24.3364 0.732233 23.3601L10.2772 13.8132L0.732233 4.26831C-0.244078 3.292 -0.244078 1.70849 0.732233 0.732175C1.70844 -0.243773 3.29113 -0.243692 4.26739 0.732175L13.8133 10.2781L23.3592 0.732175Z" fill="white"/>
<path d="M23.3592 0.732175L23.0056 0.37862L23.0056 0.378621L23.3592 0.732175ZM26.8953 0.732175L27.2489 0.378621L27.2489 0.3786L26.8953 0.732175ZM26.8953 4.26831L27.2488 4.6219L27.2489 4.62186L26.8953 4.26831ZM17.3484 13.8132L16.9949 13.4596L16.6413 13.8132L16.9949 14.1668L17.3484 13.8132ZM26.8953 23.3601L27.2489 23.0066L27.2489 23.0066L26.8953 23.3601ZM26.8953 26.8953L27.2489 27.2488L27.2489 27.2488L26.8953 26.8953ZM13.8133 17.3494L14.1668 16.9958L13.8133 16.6423L13.4597 16.9958L13.8133 17.3494ZM4.26739 26.8953L4.62094 27.2488L4.62094 27.2488L4.26739 26.8953ZM0.732233 26.8953L0.378659 27.2488L0.37868 27.2488L0.732233 26.8953ZM0.732233 23.3601L1.08579 23.7137L1.08582 23.7136L0.732233 23.3601ZM10.2772 13.8132L10.6307 14.1667L10.9842 13.8132L10.6307 13.4597L10.2772 13.8132ZM0.732233 0.732175L0.378727 0.378574L0.37868 0.378621L0.732233 0.732175ZM4.26739 0.732175L4.62094 0.378621L4.62087 0.37855L4.26739 0.732175ZM13.8133 10.2781L13.4597 10.6316L13.8133 10.9852L14.1668 10.6316L13.8133 10.2781ZM23.3592 0.732175L23.7127 1.08573C24.4937 0.304743 25.7607 0.304764 26.5418 1.08575L26.8953 0.732175L27.2489 0.3786C26.0773 -0.792814 24.1772 -0.792926 23.0056 0.37862L23.3592 0.732175ZM26.8953 0.732175L26.5418 1.08573C27.3228 1.86677 27.3228 3.1337 26.5418 3.91476L26.8953 4.26831L27.2489 4.62186C28.4204 3.45029 28.4204 1.55019 27.2489 0.378621L26.8953 0.732175ZM26.8953 4.26831L26.5418 3.91472L16.9949 13.4596L17.3484 13.8132L17.702 14.1668L27.2488 4.6219L26.8953 4.26831ZM17.3484 13.8132L16.9949 14.1668L26.5418 23.7137L26.8953 23.3601L27.2489 23.0066L17.702 13.4597L17.3484 13.8132ZM26.8953 23.3601L26.5417 23.7136C27.3226 24.4946 27.3226 25.7607 26.5417 26.5418L26.8953 26.8953L27.2489 27.2488C28.4201 26.0773 28.4202 24.1781 27.2489 23.0066L26.8953 23.3601ZM26.8953 26.8953L26.5418 26.5417C25.7607 27.3228 24.4938 27.3228 23.7127 26.5417L23.3592 26.8953L23.0056 27.2488C24.1772 28.4204 26.0773 28.4204 27.2489 27.2488L26.8953 26.8953ZM23.3592 26.8953L23.7127 26.5417L14.1668 16.9958L13.8133 17.3494L13.4597 17.7029L23.0056 27.2488L23.3592 26.8953ZM13.8133 17.3494L13.4597 16.9958L3.91384 26.5417L4.26739 26.8953L4.62094 27.2488L14.1668 17.7029L13.8133 17.3494ZM4.26739 26.8953L3.91384 26.5417C3.13279 27.3227 1.86683 27.3227 1.08579 26.5417L0.732233 26.8953L0.37868 27.2488C1.55025 28.4204 3.44937 28.4204 4.62094 27.2488L4.26739 26.8953ZM0.732233 26.8953L1.08581 26.5417C0.304826 25.7607 0.304807 24.4947 1.08579 23.7137L0.732233 23.3601L0.378676 23.0066C-0.792857 24.1781 -0.792755 26.0772 0.378659 27.2488L0.732233 26.8953ZM0.732233 23.3601L1.08582 23.7136L10.6307 14.1667L10.2772 13.8132L9.92356 13.4597L0.378643 23.0066L0.732233 23.3601ZM10.2772 13.8132L10.6307 13.4597L1.08579 3.91475L0.732233 4.26831L0.37868 4.62186L9.9236 14.1668L10.2772 13.8132ZM0.732233 4.26831L1.08579 3.91475C0.304738 3.13371 0.304738 1.86678 1.08579 1.08573L0.732233 0.732175L0.37868 0.378621C-0.792893 1.55019 -0.792893 3.45029 0.37868 4.62186L0.732233 4.26831ZM0.732233 0.732175L1.08574 1.08578C1.86667 0.30505 3.13287 0.305076 3.91391 1.0858L4.26739 0.732175L4.62087 0.37855C3.44939 -0.79246 1.55021 -0.792597 0.378727 0.378574L0.732233 0.732175ZM4.26739 0.732175L3.91384 1.08573L13.4597 10.6316L13.8133 10.2781L14.1668 9.92452L4.62094 0.378621L4.26739 0.732175ZM13.8133 10.2781L14.1668 10.6316L23.7127 1.08573L23.3592 0.732175L23.0056 0.378621L13.4597 9.92452L13.8133 10.2781Z" fill="#E4002B" mask="url(#path-1-inside-1_2264_21)"/>
</svg>
