<svg width="18" height="18" viewBox="0 0 18 18" fill="none" xmlns="http://www.w3.org/2000/svg">
<g clip-path="url(#clip0_2128_3381)">
<path d="M14.3184 8.17875C14.3184 8.32793 14.2591 8.47101 14.1537 8.5765C14.0482 8.68199 13.9051 8.74125 13.7559 8.74125C13.6067 8.74125 13.4636 8.68199 13.3582 8.5765C13.2527 8.47101 13.1934 8.32793 13.1934 8.17875C13.1934 5.41364 10.9438 3.16406 8.17875 3.16406C8.02957 3.16406 7.88649 3.1048 7.781 2.99931C7.67551 2.89382 7.61625 2.75075 7.61625 2.60156C7.61625 2.45238 7.67551 2.3093 7.781 2.20381C7.88649 2.09833 8.02957 2.03906 8.17875 2.03906C11.5642 2.03906 14.3184 4.79331 14.3184 8.17875ZM17.8352 17.0398C17.8884 17.0918 17.9308 17.1538 17.9598 17.2223C17.9889 17.2908 18.004 17.3644 18.0044 17.4388C18.0049 17.5132 17.9905 17.5869 17.9622 17.6558C17.934 17.7246 17.8923 17.7871 17.8397 17.8397C17.7871 17.8923 17.7246 17.934 17.6558 17.9622C17.5869 17.9905 17.5132 18.0049 17.4388 18.0044C17.3644 18.004 17.2908 17.9889 17.2223 17.9598C17.1538 17.9308 17.0918 17.8884 17.0398 17.8352L13.5478 14.3433C12.0615 15.6433 10.1534 16.3592 8.17875 16.3575C3.66894 16.3575 0 12.6885 0 8.17875C0 3.66901 3.66894 0 8.17875 0C12.6886 0 16.3575 3.66898 16.3575 8.17875C16.3592 10.1534 15.6433 12.0615 14.3433 13.5478L17.8352 17.0398ZM15.2325 8.17875C15.2325 4.28927 12.0682 1.125 8.17875 1.125C4.28934 1.125 1.125 4.28927 1.125 8.17875C1.125 12.0682 4.28931 15.2325 8.17875 15.2325C12.0682 15.2325 15.2325 12.0682 15.2325 8.17875Z" fill="white"/>
</g>
<defs>
<clipPath id="clip0_2128_3381">
<rect width="18" height="18" fill="white"/>
</clipPath>
</defs>
</svg>
