<svg width="19" height="32" viewBox="0 0 19 32" fill="none" xmlns="http://www.w3.org/2000/svg">
<path fill-rule="evenodd" clip-rule="evenodd" d="M16.0021 31.8966C16.8034 31.8966 17.5551 31.5871 18.1222 31.022C19.2926 29.8557 19.2926 27.9583 18.1222 26.7921L7.2426 15.9506L18.1222 5.10454C19.2926 3.9383 19.2926 2.04092 18.1222 0.874679C16.9519 -0.29156 15.0479 -0.29156 13.8775 0.874679L0.877754 13.8334C-0.292585 14.9996 -0.292585 16.897 0.877754 18.0632L13.8775 31.022C14.4447 31.5871 15.1964 31.8966 16.0021 31.8966ZM16.0021 0.749084C16.6053 0.749084 17.168 0.982332 17.5911 1.40397C18.4688 2.27865 18.4688 3.70057 17.5911 4.57524L6.44587 15.6859C6.30182 15.8294 6.30182 16.0672 6.44587 16.2107L17.5911 27.3214C18.4688 28.1961 18.4688 29.618 17.5911 30.4927C16.7133 31.3673 15.2864 31.3673 14.4087 30.4927L1.40441 17.534C0.531153 16.6593 0.531153 15.2374 1.40441 14.3627L14.4087 1.40397C14.8318 0.982332 15.399 0.749084 16.0021 0.749084Z" fill="#858994" fill-opacity="0.36"/>
</svg>
