<svg width="19" height="32" viewBox="0 0 19 32" fill="none" xmlns="http://www.w3.org/2000/svg">
<path fill-rule="evenodd" clip-rule="evenodd" d="M2.99787 31.8966C2.19664 31.8966 1.44492 31.5871 0.877754 31.022C-0.292585 29.8557 -0.292585 27.9583 0.877754 26.7921L11.7574 15.9506L0.877754 5.10454C-0.292585 3.9383 -0.292585 2.04092 0.877754 0.874679C2.04809 -0.29156 3.95214 -0.29156 5.12248 0.874679L18.1222 13.8334C19.2926 14.9996 19.2926 16.897 18.1222 18.0632L5.12248 31.022C4.55532 31.5871 3.8036 31.8966 2.99787 31.8966ZM2.99787 0.749084C2.39469 0.749084 1.83203 0.982332 1.40891 1.40397C0.531154 2.27865 0.531154 3.70057 1.40891 4.57524L12.5541 15.6859C12.6982 15.8294 12.6982 16.0672 12.5541 16.2107L1.40891 27.3214C0.531154 28.1961 0.531154 29.618 1.40891 30.4927C2.28666 31.3673 3.71358 31.3673 4.59133 30.4927L17.5956 17.534C18.4688 16.6593 18.4688 15.2374 17.5956 14.3627L4.59133 1.40397C4.16821 0.982332 3.60104 0.749084 2.99787 0.749084Z" fill="#858994" fill-opacity="0.36"/>
</svg>
