<svg width="16" height="19" viewBox="0 0 16 19" fill="none" xmlns="http://www.w3.org/2000/svg">
<path fill-rule="evenodd" clip-rule="evenodd" d="M8.93384 0.0671499C9.79897 -0.166424 10.7078 0.224202 11.1396 1.00795L11.7148 2.05217L15.0349 1.15579C15.3726 1.06462 15.7202 1.26446 15.8114 1.60214C15.9026 1.93983 15.7027 2.28748 15.365 2.37866L0.798563 6.31146C0.46088 6.40262 0.113222 6.20281 0.0220518 5.86512C-0.0691217 5.52743 0.130718 5.17977 0.468404 5.0886L3.79197 4.19127L3.77196 2.99258C3.75704 2.09921 4.34768 1.30536 5.21185 1.07205L8.93384 0.0671499ZM5.05311 3.85077L10.4559 2.39206L10.0301 1.61917C9.87781 1.3427 9.56134 1.20974 9.264 1.29001L5.54201 2.29491C5.24374 2.37544 5.0331 2.65236 5.03842 2.97143L5.05311 3.85077Z" fill="#081A38"/>
<path d="M6.01614 9.5C6.36592 9.5 6.64946 9.78354 6.64946 10.1333V15.1999C6.64946 15.5497 6.36592 15.8333 6.01614 15.8333C5.66635 15.8333 5.38281 15.5497 5.38281 15.1999V10.1333C5.38281 9.78354 5.66635 9.5 6.01614 9.5Z" fill="#081A38"/>
<path d="M9.81692 9.5C10.1667 9.5 10.4502 9.78354 10.4502 10.1333V15.1999C10.4502 15.5497 10.1667 15.8333 9.81692 15.8333C9.46713 15.8333 9.18359 15.5497 9.18359 15.1999V10.1333C9.18359 9.78354 9.46713 9.5 9.81692 9.5Z" fill="#081A38"/>
<path d="M13.2983 6.33301C13.6481 6.33301 13.9316 6.61655 13.9316 6.96633V7.59966H3.16509V17.0995C3.16509 17.4493 3.44863 17.7329 3.79841 17.7329H12.0316C12.3814 17.7329 12.665 17.4493 12.665 17.0995V10.133C12.665 9.78317 12.9485 9.49964 13.2983 9.49964C13.6481 9.49964 13.9316 9.78317 13.9316 10.133V17.0995C13.9316 18.1489 13.081 18.9995 12.0316 18.9995H3.79841C2.74909 18.9995 1.89844 18.1489 1.89844 17.0995V6.96633C1.89844 6.79834 1.96516 6.63726 2.08394 6.51848C2.20272 6.39973 2.3638 6.33301 2.53176 6.33301H13.2983Z" fill="#081A38"/>
</svg>
