<svg width="32" height="32" viewBox="0 0 32 32" fill="none" xmlns="http://www.w3.org/2000/svg">
<path fill-rule="evenodd" clip-rule="evenodd" d="M16 0C20.4182 0 24.4182 1.79092 27.3137 4.68635C30.2091 7.58178 32 11.5818 32 16C32 20.4182 30.2091 24.4182 27.3137 27.3137C24.4182 30.2091 20.4182 32 16 32C11.5818 32 7.58178 30.2091 4.68635 27.3137C1.79092 24.4182 0 20.4182 0 16C0 11.5818 1.79092 7.58178 4.68635 4.68635C7.58178 1.79092 11.5818 0 16 0ZM8.06349 21.3314H23.9365C24.3573 21.3314 24.6984 20.9903 24.6984 20.5695C24.6984 20.1488 24.3573 19.8076 23.9365 19.8076H8.06349C7.64273 19.8076 7.30159 20.1488 7.30159 20.5695C7.30159 20.9903 7.64273 21.3314 8.06349 21.3314ZM8.06349 16.7619H23.9365C24.3573 16.7619 24.6984 16.4208 24.6984 16C24.6984 15.5792 24.3573 15.2381 23.9365 15.2381H8.06349C7.64273 15.2381 7.30159 15.5792 7.30159 16C7.30159 16.4208 7.64273 16.7619 8.06349 16.7619ZM8.06349 12.1924H23.9365C24.3573 12.1924 24.6984 11.8512 24.6984 11.4305C24.6984 11.0097 24.3573 10.6686 23.9365 10.6686H8.06349C7.64273 10.6686 7.30159 11.0097 7.30159 11.4305C7.30159 11.8512 7.64273 12.1924 8.06349 12.1924Z" fill="white"/>
</svg>
