<svg width="32" height="32" viewBox="0 0 32 32" fill="none" xmlns="http://www.w3.org/2000/svg">
<path fill-rule="evenodd" clip-rule="evenodd" d="M16 0C20.4182 0 24.4182 1.79092 27.3137 4.68635C30.2091 7.58178 32 11.5818 32 16C32 20.4182 30.2091 24.4182 27.3137 27.3137C24.4182 30.2091 20.4182 32 16 32C11.5818 32 7.58178 30.2091 4.68635 27.3137C1.79092 24.4182 0 20.4182 0 16C0 11.5818 1.79092 7.58178 4.68635 4.68635C7.58178 1.79092 11.5818 0 16 0ZM8.06349 21.3314H23.9365C24.3573 21.3314 24.6984 20.9903 24.6984 20.5695C24.6984 20.1488 24.3573 19.8076 23.9365 19.8076H8.06349C7.64273 19.8076 7.30159 20.1488 7.30159 20.5695C7.30159 20.9903 7.64273 21.3314 8.06349 21.3314ZM8.06349 16.7619H23.9365C24.3573 16.7619 24.6984 16.4208 24.6984 16C24.6984 15.5792 24.3573 15.2381 23.9365 15.2381H8.06349C7.64273 15.2381 7.30159 15.5792 7.30159 16C7.30159 16.4208 7.64273 16.7619 8.06349 16.7619ZM8.06349 12.1924H23.9365C24.3573 12.1924 24.6984 11.8512 24.6984 11.4305C24.6984 11.0097 24.3573 10.6686 23.9365 10.6686H8.06349C7.64273 10.6686 7.30159 11.0097 7.30159 11.4305C7.30159 11.8512 7.64273 12.1924 8.06349 12.1924Z" fill="white"/>
<circle cx="16.5" cy="15.5" r="13.5" fill="white"/>
<mask id="path-3-inside-1_1324_2862" fill="white">
<path d="M22.3743 8.45056C22.975 7.84981 23.9493 7.84981 24.55 8.45056C25.1503 9.05121 25.1503 10.0247 24.55 10.6254L18.675 16.4994L24.5491 22.3734C25.1498 22.9742 25.1498 23.9484 24.5491 24.5492C23.9484 25.1496 22.9749 25.1496 22.3743 24.5492L16.5002 18.6752L10.6262 24.5492C10.0254 25.1498 9.05113 25.1499 8.45043 24.5492C7.84984 23.9485 7.84987 22.9741 8.45043 22.3734L14.3244 16.4994L8.45043 10.6254C7.85009 10.0247 7.85008 9.05123 8.45043 8.45056C9.05118 7.84981 10.0255 7.84981 10.6262 8.45056L16.4993 14.3236L22.3743 8.45056Z"/>
</mask>
<path d="M22.3743 8.45056C22.975 7.84981 23.9493 7.84981 24.55 8.45056C25.1503 9.05121 25.1503 10.0247 24.55 10.6254L18.675 16.4994L24.5491 22.3734C25.1498 22.9742 25.1498 23.9484 24.5491 24.5492C23.9484 25.1496 22.9749 25.1496 22.3743 24.5492L16.5002 18.6752L10.6262 24.5492C10.0254 25.1498 9.05113 25.1499 8.45043 24.5492C7.84984 23.9485 7.84987 22.9741 8.45043 22.3734L14.3244 16.4994L8.45043 10.6254C7.85009 10.0247 7.85008 9.05123 8.45043 8.45056C9.05118 7.84981 10.0255 7.84981 10.6262 8.45056L16.4993 14.3236L22.3743 8.45056Z" fill="white"/>
<path d="M22.3743 8.45056L22.7277 8.80418L22.7278 8.80412L22.3743 8.45056ZM24.55 8.45056L24.9037 8.09713L24.9036 8.09701L24.55 8.45056ZM24.55 10.6254L24.9036 10.979L24.9037 10.9788L24.55 10.6254ZM18.675 16.4994L18.3215 16.1458L17.9679 16.4994L18.3215 16.8529L18.675 16.4994ZM24.5491 24.5492L24.9025 24.9028L24.9026 24.9028L24.5491 24.5492ZM22.3743 24.5492L22.0207 24.9028L22.0208 24.9028L22.3743 24.5492ZM16.5002 18.6752L16.8538 18.3216L16.5002 17.9681L16.1467 18.3216L16.5002 18.6752ZM10.6262 24.5492L10.9797 24.9028L10.9798 24.9028L10.6262 24.5492ZM8.45043 24.5492L8.09684 24.9027L8.09687 24.9028L8.45043 24.5492ZM8.45043 22.3734L8.09687 22.0199L8.09682 22.0199L8.45043 22.3734ZM14.3245 16.4994L14.678 16.8529L15.0316 16.4994L14.678 16.1458L14.3245 16.4994ZM8.45043 10.6254L8.09677 10.9788L8.09687 10.9789L8.45043 10.6254ZM8.45043 8.45056L8.09687 8.09701L8.09678 8.0971L8.45043 8.45056ZM16.4993 14.3236L16.1457 14.6772L16.4992 15.0307L16.8527 14.6772L16.4993 14.3236ZM22.3743 8.45056L22.7278 8.80412C23.1333 8.39863 23.791 8.39863 24.1965 8.80412L24.55 8.45056L24.9036 8.09701C24.1076 7.301 22.8167 7.301 22.0207 8.09701L22.3743 8.45056ZM24.55 8.45056L24.1964 8.804C24.6015 9.20941 24.6015 9.86651 24.1964 10.2719L24.55 10.6254L24.9037 10.9788C25.699 10.1829 25.6991 8.89302 24.9037 8.09713L24.55 8.45056ZM24.55 10.6254L24.1965 10.2718L18.3215 16.1458L18.675 16.4994L19.0286 16.853L24.9036 10.979L24.55 10.6254ZM18.675 16.4994L18.3215 16.8529L24.1955 22.727L24.5491 22.3734L24.9026 22.0199L19.0286 16.1458L18.675 16.4994ZM24.5491 22.3734L24.1955 22.727C24.601 23.1325 24.601 23.7902 24.1955 24.1956L24.5491 24.5492L24.9026 24.9028C25.6986 24.1067 25.6986 22.8159 24.9026 22.0199L24.5491 22.3734ZM24.5491 24.5492L24.1956 24.1955C23.7901 24.6008 23.1331 24.6008 22.7277 24.1956L22.3743 24.5492L22.0208 24.9028C22.8167 25.6984 24.1066 25.6983 24.9025 24.9028L24.5491 24.5492ZM22.3743 24.5492L22.7278 24.1956L16.8538 18.3216L16.5002 18.6752L16.1467 19.0287L22.0207 24.9028L22.3743 24.5492ZM16.5002 18.6752L16.1467 18.3216L10.2727 24.1956L10.6262 24.5492L10.9798 24.9028L16.8538 19.0287L16.5002 18.6752ZM10.6262 24.5492L10.2727 24.1956C9.86714 24.601 9.20937 24.601 8.80398 24.1956L8.45043 24.5492L8.09687 24.9028C8.89288 25.6988 10.1837 25.6985 10.9797 24.9028L10.6262 24.5492ZM8.45043 24.5492L8.80402 24.1957C8.39866 23.7902 8.39866 23.1324 8.80403 22.7269L8.45043 22.3734L8.09682 22.0199C7.30108 22.8159 7.30103 24.1067 8.09684 24.9027L8.45043 24.5492ZM8.45043 22.3734L8.80398 22.727L14.678 16.8529L14.3245 16.4994L13.9709 16.1458L8.09687 22.0199L8.45043 22.3734ZM14.3245 16.4994L14.678 16.1458L8.80398 10.2718L8.45043 10.6254L8.09687 10.9789L13.9709 16.8529L14.3245 16.4994ZM8.45043 10.6254L8.80408 10.2719C8.39887 9.86647 8.39887 9.20945 8.80407 8.80402L8.45043 8.45056L8.09678 8.0971C7.30129 8.89302 7.30131 10.1829 8.09677 10.9788L8.45043 10.6254ZM8.45043 8.45056L8.80398 8.80412C9.20947 8.39863 9.86717 8.39863 10.2727 8.80412L10.6262 8.45056L10.9798 8.09701C10.1837 7.301 8.89289 7.301 8.09687 8.09701L8.45043 8.45056ZM10.6262 8.45056L10.2727 8.80412L16.1457 14.6772L16.4993 14.3236L16.8528 13.9701L10.9798 8.09701L10.6262 8.45056ZM16.4993 14.3236L16.8527 14.6772L22.7277 8.80418L22.3743 8.45056L22.0208 8.09695L16.1458 13.97L16.4993 14.3236Z" fill="#E4002B" mask="url(#path-3-inside-1_1324_2862)"/>
</svg>
