<svg width="198" height="52" viewBox="0 0 198 52" fill="none" xmlns="http://www.w3.org/2000/svg">
<path d="M23.3495 21.0206L24.3624 20.4498L36.274 13.7366L31.6572 11.1346L18.3784 18.6183V31.6074L23.3018 28.8228L23.3495 21.0206Z" fill="white"/>
<path d="M37.9195 14.6647L24.9961 21.9481V27.8652L38.2784 20.3529L40.0533 21.3701L40.054 21.3705L44.9359 24.1218V18.6191L37.9195 14.6647Z" fill="white"/>
<path d="M38.303 22.3573L24.9962 29.8569L23.2895 30.8188L18.3784 33.5865L31.6572 41.0703L44.936 33.5865V26.0957L38.303 22.3573Z" fill="white"/>
<mask id="mask0_2194_386" style="mask-type:luminance" maskUnits="userSpaceOnUse" x="0" y="0" width="198" height="52">
<path d="M0 0H198V52H0V0Z" fill="white"/>
</mask>
<g mask="url(#mask0_2194_386)">
<path d="M63.4648 33.7402C62.181 33.7402 61.0898 33.3725 60.1942 32.6362C59.317 31.8806 58.8799 30.9758 58.8799 29.921V22.2827C58.8799 21.2287 59.317 20.3337 60.1942 19.5974C61.0898 18.8417 62.181 18.4636 63.4648 18.4636H77.2194V22.2827H65.7572C65.1245 22.2827 64.5744 22.4722 64.1067 22.8497C63.6787 23.2278 63.4648 23.6754 63.4648 24.1923V28.0115C63.4648 28.5485 63.6787 29.0065 64.1067 29.384C64.5744 29.742 65.1245 29.921 65.7572 29.921H77.2194V33.7402H63.4648Z" fill="white"/>
<path d="M86.1752 33.7402V22.2827H79.2979V18.4636H97.6374V22.2827H90.7601V33.7402H86.1752Z" fill="white"/>
<path d="M119.125 33.7402L133.568 18.4636H138.153V33.7402H133.568V25.1582L125.175 33.7402H119.125Z" fill="white"/>
<path d="M152.145 29.921C152.777 29.921 153.316 29.742 153.765 29.384C154.213 29.0065 154.438 28.5485 154.438 28.0114V24.1923C154.438 23.6754 154.213 23.2277 153.765 22.8496C153.316 22.4721 152.777 22.2827 152.145 22.2827H147.56C146.928 22.2827 146.378 22.4721 145.91 22.8496C145.482 23.2277 145.268 23.6754 145.268 24.1923V28.0114C145.268 28.5485 145.482 29.0065 145.91 29.384C146.378 29.742 146.928 29.921 147.56 29.921H152.145ZM145.268 33.7402C143.984 33.7402 142.893 33.3724 141.997 32.6362C141.12 31.8806 140.683 30.9758 140.683 29.921V22.2827C140.683 21.2287 141.12 20.3336 141.997 19.5974C142.893 18.8417 143.984 18.4635 145.268 18.4635H154.438C155.7 18.4635 156.781 18.8417 157.678 19.5974C158.573 20.3537 159.023 21.2488 159.023 22.2827V29.921C159.023 30.9952 158.573 31.9007 157.678 32.6362C156.781 33.3724 155.7 33.7402 154.438 33.7402H145.268Z" fill="white"/>
<path d="M161.101 33.7402V18.4636H165.686V24.1923H174.856V18.4636H179.441V33.7402H174.856V28.0115H165.686V33.7402H161.101Z" fill="white"/>
<path d="M99.229 33.7402V18.4636H103.814V28.0115L112.984 18.4636H117.569V33.7402H112.984V24.3658L103.814 33.7402H99.229Z" fill="white"/>
</g>
</svg>
